<?xml version="1.0" encoding="UTF-8"?>
<svg width="662px" height="906px" viewBox="0 0 662 906" version="1.1" xmlns="http://www.w3.org/2000/svg" xmlns:xlink="http://www.w3.org/1999/xlink">
    <!-- Generator: Sketch 58 (84663) - https://sketch.com -->
    <title>票bg</title>
    <desc>Created with Sketch.</desc>
    <defs>
        <filter x="0.0%" y="-0.0%" width="100.0%" height="100.0%" filterUnits="objectBoundingBox" id="filter-1">
            <feGaussianBlur stdDeviation="0" in="SourceGraphic"></feGaussianBlur>
        </filter>
    </defs>
    <g id="清票票" stroke="none" stroke-width="1" fill="none" fill-rule="evenodd">
        <g id="电子票" transform="translate(-45.000000, -164.000000)" fill="#CBCBCB" stroke="#979797">
            <g id="票bg" transform="translate(45.000000, 164.000000)">
                <path d="M0.499572055,276.523082 C11.8255889,277.079852 20.8018716,287.632412 20.8018716,300.5 C20.8018716,313.367588 11.8255883,323.920148 0.499571056,324.476918 L0.500555304,886.770861 C0.500555304,892.791503 1.00328481,895.39485 2.44495718,898.090543 C3.70566048,900.447854 5.55270175,902.294895 7.91001196,903.555598 C10.6057049,904.99727 13.209052,905.5 19.2296943,905.5 L642.770861,905.5 C648.791503,905.5 651.39485,904.99727 654.090543,903.555598 C656.447854,902.294895 658.294895,900.447854 659.555598,898.090543 C660.99727,895.39485 661.5,892.791503 661.5,886.770861 L661.499982,324.476869 C650.174398,323.919523 641.198684,313.367166 641.198684,300.5 C641.198684,287.632834 650.174398,277.080477 661.499982,276.523131 L661.5,19.229139 C661.5,13.2084967 660.99727,10.6051496 659.555598,7.90945665 C658.294895,5.55214644 656.447854,3.70510517 654.090543,2.44440188 C651.39485,1.00272951 648.791503,0.5 642.770861,0.5 L19.2296943,0.5 C13.209052,0.5 10.6057049,1.00272951 7.91001196,2.44440188 C5.55270175,3.70510517 3.70566048,5.55214644 2.44495718,7.90945665 C1.00328481,10.6051496 0.500555304,13.2084967 0.500555304,19.2291409 L0.499572055,276.523082 Z M75,299.5 C76.3807119,299.5 77.5,300.619288 77.5,302 C77.5,303.380712 76.3807119,304.5 75,304.5 L58.9816362,304.499663 L58.813949,304.493159 C57.5130191,304.39718 56.5,303.311335 56.5,302 C56.5,300.619288 57.6192881,299.5 59,299.5 L75,299.5 Z M113,299.5 C114.380712,299.5 115.5,300.619288 115.5,302 C115.5,303.380712 114.380712,304.5 113,304.5 L96.9816362,304.499663 L96.813949,304.493159 C95.5130191,304.39718 94.5,303.311335 94.5,302 C94.5,300.619288 95.6192881,299.5 97,299.5 L113,299.5 Z M151,299.5 C152.380712,299.5 153.5,300.619288 153.5,302 C153.5,303.380712 152.380712,304.5 151,304.5 L134.981636,304.499663 L134.813949,304.493159 C133.513019,304.39718 132.5,303.311335 132.5,302 C132.5,300.619288 133.619288,299.5 135,299.5 L151,299.5 Z M189,299.5 C190.380712,299.5 191.5,300.619288 191.5,302 C191.5,303.380712 190.380712,304.5 189,304.5 L172.981636,304.499663 L172.813949,304.493159 C171.513019,304.39718 170.5,303.311335 170.5,302 C170.5,300.619288 171.619288,299.5 173,299.5 L189,299.5 Z M227,299.5 C228.380712,299.5 229.5,300.619288 229.5,302 C229.5,303.380712 228.380712,304.5 227,304.5 L210.981636,304.499663 L210.813949,304.493159 C209.513019,304.39718 208.5,303.311335 208.5,302 C208.5,300.619288 209.619288,299.5 211,299.5 L227,299.5 Z M303,299.5 C304.380712,299.5 305.5,300.619288 305.5,302 C305.5,303.380712 304.380712,304.5 303,304.5 L286.981636,304.499663 L286.813949,304.493159 C285.513019,304.39718 284.5,303.311335 284.5,302 C284.5,300.619288 285.619288,299.5 287,299.5 L303,299.5 Z M265,299.5 C266.380712,299.5 267.5,300.619288 267.5,302 C267.5,303.380712 266.380712,304.5 265,304.5 L248.981636,304.499663 L248.813949,304.493159 C247.513019,304.39718 246.5,303.311335 246.5,302 C246.5,300.619288 247.619288,299.5 249,299.5 L265,299.5 Z M341,299.5 C342.380712,299.5 343.5,300.619288 343.5,302 C343.5,303.380712 342.380712,304.5 341,304.5 L324.981636,304.499663 L324.813949,304.493159 C323.513019,304.39718 322.5,303.311335 322.5,302 C322.5,300.619288 323.619288,299.5 325,299.5 L341,299.5 Z M379,299.5 C380.380712,299.5 381.5,300.619288 381.5,302 C381.5,303.380712 380.380712,304.5 379,304.5 L362.981636,304.499663 L362.813949,304.493159 C361.513019,304.39718 360.5,303.311335 360.5,302 C360.5,300.619288 361.619288,299.5 363,299.5 L379,299.5 Z M417,299.5 C418.380712,299.5 419.5,300.619288 419.5,302 C419.5,303.380712 418.380712,304.5 417,304.5 L400.981636,304.499663 L400.813949,304.493159 C399.513019,304.39718 398.5,303.311335 398.5,302 C398.5,300.619288 399.619288,299.5 401,299.5 L417,299.5 Z M455,299.5 C456.380712,299.5 457.5,300.619288 457.5,302 C457.5,303.380712 456.380712,304.5 455,304.5 L438.981636,304.499663 L438.813949,304.493159 C437.513019,304.39718 436.5,303.311335 436.5,302 C436.5,300.619288 437.619288,299.5 439,299.5 L455,299.5 Z M493,299.5 C494.380712,299.5 495.5,300.619288 495.5,302 C495.5,303.380712 494.380712,304.5 493,304.5 L476.981636,304.499663 L476.813949,304.493159 C475.513019,304.39718 474.5,303.311335 474.5,302 C474.5,300.619288 475.619288,299.5 477,299.5 L493,299.5 Z M531,299.5 C532.380712,299.5 533.5,300.619288 533.5,302 C533.5,303.380712 532.380712,304.5 531,304.5 L514.981636,304.499663 L514.813949,304.493159 C513.513019,304.39718 512.5,303.311335 512.5,302 C512.5,300.619288 513.619288,299.5 515,299.5 L531,299.5 Z M569,299.5 C570.380712,299.5 571.5,300.619288 571.5,302 C571.5,303.380712 570.380712,304.5 569,304.5 L552.981636,304.499663 L552.813949,304.493159 C551.513019,304.39718 550.5,303.311335 550.5,302 C550.5,300.619288 551.619288,299.5 553,299.5 L569,299.5 Z M607,299.5 C608.380712,299.5 609.5,300.619288 609.5,302 C609.5,303.380712 608.380712,304.5 607,304.5 L591,304.5 C589.619288,304.5 588.5,303.380712 588.5,302 C588.5,300.619288 589.619288,299.5 591,299.5 L607,299.5 Z" id="形状结合" filter="url(#filter-1)"></path>
            </g>
        </g>
    </g>
</svg>